<svg width="26" height="13" viewBox="0 0 26 13" fill="none" xmlns="http://www.w3.org/2000/svg">
<path d="M25.0991 8.63689L17.085 0.622805H17.0878C16.6894 0.224163 16.1489 0.000132893 15.5853 0C15.0216 -0.000132775 14.481 0.223642 14.0824 0.622097C13.6837 1.02055 13.4597 1.56105 13.4596 2.12468C13.4594 2.68831 13.6832 3.22891 14.0817 3.62755L18.4663 8.01356H2.125C1.56141 8.01356 1.02091 8.23744 0.622398 8.63595C0.223883 9.03447 0 9.57497 0 10.1386C0 10.7021 0.223883 11.2426 0.622398 11.6412C1.02091 12.0397 1.56141 12.2636 2.125 12.2636H18.4663L20.1875 12.2634H23.375C24.4375 12.2634 24.6982 12.0796 25.0991 11.6402C25.5 11.2009 25.7205 10.7732 25.7205 10.1386C25.7205 9.50388 25.497 9.03533 25.0991 8.63689Z" fill="white"/>
</svg>
